<svg xmlns="http://www.w3.org/2000/svg" width="18.182" height="20" viewBox="0 0 18.182 20">
  <path id="calendario" d="M11.091,17.364a.909.909,0,1,0-.909-.909A.909.909,0,0,0,11.091,17.364Zm4.545,0a.909.909,0,1,0-.909-.909A.909.909,0,0,0,15.636,17.364Zm0-3.636a.909.909,0,1,0-.909-.909A.909.909,0,0,0,15.636,13.727Zm-4.545,0a.909.909,0,1,0-.909-.909A.909.909,0,0,0,11.091,13.727ZM17.455,2.818h-.909V1.909a.909.909,0,1,0-1.818,0v.909H7.455V1.909a.909.909,0,0,0-1.818,0v.909H4.727A2.727,2.727,0,0,0,2,5.545V18.273A2.727,2.727,0,0,0,4.727,21H17.455a2.727,2.727,0,0,0,2.727-2.727V5.545A2.727,2.727,0,0,0,17.455,2.818Zm.909,15.455a.909.909,0,0,1-.909.909H4.727a.909.909,0,0,1-.909-.909V10.091H18.364Zm0-10H3.818V5.545a.909.909,0,0,1,.909-.909h.909v.909a.909.909,0,0,0,1.818,0V4.636h7.273v.909a.909.909,0,1,0,1.818,0V4.636h.909a.909.909,0,0,1,.909.909ZM6.545,13.727a.909.909,0,1,0-.909-.909A.909.909,0,0,0,6.545,13.727Zm0,3.636a.909.909,0,1,0-.909-.909A.909.909,0,0,0,6.545,17.364Z" transform="translate(-2 -1)" fill="#4c4b4d"/>
</svg>
