<svg width="306" height="318" viewBox="0 0 306 318" fill="none" xmlns="http://www.w3.org/2000/svg">
<g clip-path="url(#clip0)">
<g clip-path="url(#clip1)">
<path d="M290.594 0.000526237H173.871C168.239 0.000520113 162.774 1.91749 158.375 5.43632C153.976 8.95516 150.905 13.8664 149.666 19.3629L90.6885 281.05C90.0452 283.905 90.0339 286.865 90.6553 289.724C91.2767 292.584 92.5159 295.272 94.2858 297.602C96.0558 299.931 98.3137 301.845 100.901 303.209C103.489 304.574 106.343 305.355 109.265 305.499L229.256 311.413C235.682 311.73 242.002 309.697 247.039 305.694C252.077 301.692 255.486 295.992 256.631 289.66L290.086 104.644L292.575 105.355L298.977 70.2879L296.415 69.6472L305.753 18.0026C306.153 15.7905 306.061 13.5175 305.482 11.3454C304.903 9.17333 303.852 7.15576 302.404 5.43652C300.957 3.71729 299.147 2.33872 297.106 1.3991C295.065 0.459475 292.841 -0.0180654 290.594 0.000522534L290.594 0.000526237Z" fill="#3F3D56"/>
<path d="M189.238 5.64179H175.613C171.7 5.64179 167.905 6.98045 164.857 9.43554C161.81 11.8906 159.693 15.3145 158.859 19.1387L102.249 278.691C101.923 280.186 101.923 281.733 102.25 283.227C102.576 284.721 103.222 286.127 104.141 287.349C105.061 288.571 106.233 289.58 107.578 290.308C108.923 291.035 110.409 291.463 111.935 291.563L231.538 299.404C234.913 299.626 238.25 298.596 240.914 296.513C243.578 294.429 245.382 291.438 245.981 288.109L294.287 19.8359C294.6 18.0995 294.528 16.3156 294.076 14.6102C293.624 12.9047 292.804 11.3193 291.672 9.96562C290.541 8.612 289.127 7.52321 287.529 6.77611C285.931 6.02901 284.189 5.64179 282.425 5.64179H269.5C268.249 5.64179 267.033 6.05434 266.04 6.81557C265.047 7.5768 264.332 8.64424 264.007 9.85264V9.85264C263.72 10.9194 263.089 11.8618 262.213 12.5338C261.336 13.2059 260.263 13.5701 259.158 13.5701H197.796C195.634 13.5701 193.551 12.7535 191.964 11.2836C190.377 9.81368 189.404 7.79879 189.238 5.64178V5.64179Z" fill="white"/>
<path d="M61.2126 139.147L71.7582 160.032L103.29 174.371C106.657 180.064 117.358 180.5 118.136 176.818C119.009 172.689 105.142 166.041 105.142 166.041L78.7681 148.196L76.4605 132.834L61.2126 139.147Z" fill="#A0616A"/>
<path d="M62.4564 279.299L60.5116 294.862L71.7917 295.641L72.9583 279.299H62.4564Z" fill="#A0616A"/>
<path d="M64.0125 292.528C63.0041 291.461 62.0739 290.323 61.229 289.123C59.6125 286.885 58.178 298.364 58.178 298.364C58.178 298.364 56.6222 303.033 57.0112 305.368C57.4001 307.703 66.3463 307.703 67.9021 307.314C69.458 306.924 77.2373 307.314 77.2373 307.314H88.9061C99.0192 302.644 88.9061 299.532 88.9061 299.532C85.7944 299.143 75.2924 289.415 75.2924 289.415L72.9587 285.135C71.4028 284.746 69.8469 290.582 69.8469 290.582L64.0125 292.528Z" fill="#2F2E41"/>
<path d="M33.2845 279.493L31.3392 295.057L42.6192 295.835L43.7864 279.493H33.2845Z" fill="#A0616A"/>
<path d="M34.8402 292.722C33.8318 291.656 32.9016 290.518 32.0568 289.317C30.4402 287.08 29.0058 298.559 29.0058 298.559C29.0058 298.559 27.4499 302.839 27.8389 305.174C28.2279 307.508 37.1741 307.508 38.7299 307.119C40.2857 306.73 48.065 307.508 48.065 307.508H59.7339C69.8469 302.839 59.7339 299.726 59.7339 299.726C56.6222 299.337 46.1202 289.61 46.1202 289.61L43.7864 285.33C42.2305 284.941 40.6747 290.777 40.6747 290.777L34.8402 292.722Z" fill="#2F2E41"/>
<path d="M46.1202 179.107C44.5643 181.052 45.3422 187.667 45.3422 187.667C45.3422 187.667 42.6195 209.067 43.7864 211.013C44.9532 212.958 43.0084 214.514 41.8415 217.238C40.6746 219.962 39.5078 226.576 39.5078 226.576C32.8954 232.024 33.2844 256.926 33.2844 256.926L30.9506 279.104C31.7285 281.439 42.6194 281.828 44.1753 281.439C45.7312 281.05 50.3987 246.031 50.3987 246.031L60.9007 226.187C60.9007 226.187 60.1228 279.104 60.1228 281.439C60.1228 283.773 70.6248 282.606 72.9586 282.606C75.2924 282.606 75.2924 243.697 75.2924 243.697L77.6262 233.58L90.073 187.278V181.83L88.1282 179.107C88.1282 179.107 47.676 177.161 46.1202 179.107Z" fill="#2F2E41"/>
<path d="M63.2346 90.7818C69.8939 90.7818 75.2924 85.3814 75.2924 78.7198C75.2924 72.0582 69.8939 66.6578 63.2346 66.6578C56.5752 66.6578 51.1767 72.0582 51.1767 78.7198C51.1767 85.3814 56.5752 90.7818 63.2346 90.7818Z" fill="#A0616A"/>
<path d="M69.2635 84.3617C66.8193 89.8061 68.2666 97.4106 73.1531 105.762L53.316 96.4237L56.4277 93.7L55.6498 85.9181L69.2635 84.3617Z" fill="#A0616A"/>
<path d="M69.2635 96.8128C71.8612 98.3577 73.4151 101.196 74.3072 104.085C75.9586 109.432 76.9527 114.961 77.2674 120.549L78.2096 137.279L89.8786 181.636C79.7655 190.196 73.931 188.25 60.3173 181.247C46.7037 174.243 45.1478 183.581 45.1478 183.581C45.1478 183.581 43.9809 183.192 45.1478 182.025C46.3147 180.857 45.1478 182.025 43.9809 180.857C42.814 179.69 43.9809 180.857 44.3699 179.69C44.7588 178.523 44.3699 179.301 43.9809 178.912C43.592 178.523 45.5368 175.021 45.5368 175.021L42.425 145.839L38.5354 104.595C43.203 98.7582 56.4277 93.7 56.4277 93.7L68.4856 102.26C72.3752 103.816 69.2635 97.5909 69.2635 97.5909L69.2635 96.8128Z" fill="#6C63FF"/>
<path d="M32.1175 129.302L30.5616 152.648L50.3988 181.052C50.3988 187.667 53.8994 189.223 53.8994 189.223C55.2254 187.106 56.3953 184.895 57.4001 182.608C59.3449 178.328 56.2332 174.826 56.2332 174.826L42.6195 146.033L48.4539 131.637L32.1175 129.302Z" fill="#A0616A"/>
<path d="M38.7299 104.789C32.1175 107.124 30.9506 132.415 30.9506 132.415C38.7299 128.135 48.065 135.139 48.065 135.139C48.065 135.139 50.0098 128.524 52.3436 119.964C53.0483 117.556 53.1325 115.009 52.5884 112.56C52.0443 110.111 50.8897 107.839 49.2319 105.956C49.2319 105.956 45.3423 102.455 38.7299 104.789Z" fill="#6C63FF"/>
<path d="M52.1491 82.4162C53.6841 81.1877 55.7782 83.4207 55.7782 83.4207L57.0062 72.3648C57.0062 72.3648 64.6814 73.2861 69.5934 72.0577C74.5055 70.8292 75.273 76.5107 75.273 76.5107C75.5262 74.2164 75.5776 71.9042 75.4265 69.6008C75.1195 66.8368 71.1285 64.0728 64.0674 62.2302C57.0063 60.3875 53.3222 68.3724 53.3222 68.3724C48.4101 70.8292 50.6141 83.6446 52.1491 82.4162Z" fill="#2F2E41"/>
<path d="M257.112 187.091C257.347 187.1 257.576 187.025 257.76 186.879C257.944 186.733 258.069 186.527 258.114 186.297L284.933 40.2724C284.958 40.1334 284.953 39.9905 284.918 39.8536C284.882 39.7168 284.817 39.5894 284.728 39.4803C284.638 39.3711 284.525 39.2829 284.398 39.2218C284.271 39.1607 284.131 39.1282 283.99 39.1265L161.975 37.7046H161.964C161.744 37.7054 161.53 37.7808 161.358 37.9185C161.186 38.0561 161.066 38.248 161.017 38.4628L129.401 179.747C129.37 179.885 129.37 180.029 129.4 180.167C129.43 180.305 129.49 180.435 129.576 180.547C129.662 180.66 129.771 180.752 129.896 180.818C130.021 180.884 130.159 180.921 130.3 180.928L257.112 187.091Z" fill="#E6E6E6"/>
<path d="M150.928 196.419C150.818 196.419 150.712 196.456 150.626 196.524C150.54 196.592 150.48 196.688 150.456 196.794L149.329 201.626C149.313 201.694 149.312 201.765 149.326 201.834C149.34 201.902 149.369 201.967 149.411 202.024C149.453 202.08 149.506 202.127 149.567 202.161C149.629 202.195 149.697 202.215 149.767 202.22L213.427 206.746C213.545 206.753 213.661 206.718 213.755 206.646C213.849 206.574 213.914 206.471 213.937 206.355L215.021 200.765C215.034 200.697 215.033 200.627 215.017 200.56C215.001 200.493 214.971 200.43 214.928 200.375C214.886 200.32 214.832 200.276 214.771 200.243C214.71 200.211 214.643 200.192 214.574 200.188L150.957 196.42C150.947 196.419 150.937 196.419 150.928 196.419Z" fill="#E6E6E6"/>
<path d="M228.27 224.697C228.385 224.706 228.499 224.674 228.592 224.606C228.685 224.539 228.752 224.441 228.78 224.329L230.159 218.728C230.176 218.659 230.178 218.587 230.164 218.518C230.15 218.449 230.122 218.383 230.08 218.326C230.038 218.269 229.985 218.221 229.923 218.187C229.861 218.153 229.792 218.132 229.721 218.127L148.426 212.44C148.315 212.431 148.205 212.461 148.114 212.524C148.023 212.587 147.957 212.679 147.926 212.786L146.493 217.626C146.472 217.695 146.468 217.768 146.479 217.84C146.49 217.911 146.517 217.979 146.558 218.038C146.599 218.098 146.652 218.148 146.715 218.184C146.777 218.22 146.847 218.242 146.919 218.247L228.27 224.697Z" fill="#E6E6E6"/>
<path d="M223.904 242.652C224.019 242.661 224.133 242.629 224.226 242.562C224.32 242.494 224.386 242.396 224.414 242.284L225.793 236.683C225.81 236.614 225.812 236.542 225.798 236.473C225.784 236.403 225.756 236.338 225.714 236.281C225.672 236.223 225.619 236.176 225.557 236.142C225.495 236.107 225.426 236.087 225.356 236.082L144.06 230.395C143.949 230.386 143.839 230.415 143.748 230.478C143.657 230.542 143.591 230.634 143.561 230.741L142.127 235.581C142.107 235.65 142.102 235.723 142.113 235.794C142.124 235.866 142.151 235.934 142.192 235.993C142.233 236.053 142.286 236.102 142.349 236.139C142.411 236.175 142.481 236.196 142.553 236.202L223.904 242.652Z" fill="#E6E6E6"/>
<path d="M186.462 273.454C186.578 273.466 186.694 273.435 186.789 273.368C186.884 273.301 186.951 273.201 186.978 273.088L189.895 261.417C189.912 261.349 189.914 261.278 189.901 261.208C189.888 261.139 189.86 261.074 189.819 261.017C189.778 260.959 189.725 260.912 189.664 260.877C189.603 260.842 189.535 260.821 189.465 260.815L139.541 256.615C139.424 256.607 139.309 256.64 139.214 256.709C139.12 256.779 139.054 256.879 139.027 256.993L136.538 268.194C136.523 268.261 136.523 268.331 136.537 268.398C136.551 268.466 136.579 268.529 136.62 268.585C136.66 268.641 136.712 268.687 136.772 268.721C136.832 268.755 136.898 268.776 136.967 268.783L186.462 273.454Z" fill="#6C63FF"/>
</g>
</g>
<defs>
<clipPath id="clip0">
<rect width="306" height="318" fill="white"/>
</clipPath>
<clipPath id="clip1">
<rect x="-114" width="420" height="315.647" fill="white"/>
</clipPath>
</defs>
</svg>
