<svg width="1200" height="1200" viewBox="0 0 1200 1200" fill="none" xmlns="http://www.w3.org/2000/svg">
<path d="M754.18 1077.87L445.024 1077.66C407.864 1077.66 377.683 1045.98 377.683 1006.92V192.708C377.683 153.65 407.864 121.969 445.024 122L754.027 122.184C791.217 122.184 821.368 153.865 821.368 192.922L821.215 1007.14C821.521 1046.22 791.37 1077.87 754.18 1077.87Z" fill="#263238"/>
<path d="M754.088 151.018H694.155C690.111 151.216 686.31 153.009 683.585 156.004C680.86 158.999 679.432 162.951 679.615 166.996V178.413C679.798 182.463 678.367 186.42 675.635 189.416C672.903 192.412 669.095 194.201 665.045 194.392H548.27C544.22 194.193 540.414 192.396 537.688 189.395C534.962 186.393 533.539 182.433 533.73 178.383V166.996C533.913 162.951 532.486 158.999 529.761 156.004C527.036 153.009 523.235 151.216 519.191 151.018H445.728C419.679 151.018 398.559 173.21 398.559 200.575V995.259C398.559 1022.59 419.649 1044.79 445.667 1044.82L754.088 1045C780.137 1045 801.257 1022.84 801.257 995.473L801.196 200.667C801.196 173.118 780.137 151.018 754.088 151.018Z" fill="white"/>
<path d="M482.612 969.792V989.229C482.61 989.61 482.506 989.984 482.311 990.311C482.116 990.639 481.838 990.908 481.504 991.092C481.17 991.276 480.794 991.368 480.413 991.358C480.032 991.348 479.66 991.236 479.337 991.035L464.032 981.301C463.729 981.107 463.479 980.841 463.306 980.525C463.133 980.209 463.042 979.855 463.042 979.495C463.042 979.135 463.133 978.781 463.306 978.466C463.479 978.15 463.729 977.883 464.032 977.689L479.337 967.955C479.663 967.753 480.037 967.641 480.42 967.632C480.804 967.623 481.183 967.718 481.517 967.905C481.852 968.093 482.13 968.367 482.323 968.699C482.515 969.031 482.615 969.408 482.612 969.792Z" fill="#E0E0E0"/>
<path d="M608.295 979.312C608.289 981.962 607.497 984.551 606.02 986.752C604.544 988.952 602.448 990.666 599.997 991.676C597.547 992.686 594.852 992.947 592.254 992.427C589.655 991.906 587.269 990.626 585.397 988.75C583.525 986.874 582.251 984.485 581.736 981.885C581.221 979.285 581.489 976.591 582.504 974.143C583.52 971.695 585.238 969.603 587.443 968.131C589.647 966.659 592.238 965.874 594.888 965.874C598.446 965.882 601.856 967.301 604.37 969.821C606.883 972.34 608.295 975.753 608.295 979.312Z" fill="#E0E0E0"/>
<path d="M723.6 967.619H710.315C707.154 967.619 704.591 970.181 704.591 973.343V986.688C704.591 989.85 707.154 992.412 710.315 992.412H723.6C726.761 992.412 729.324 989.85 729.324 986.688V973.343C729.324 970.181 726.761 967.619 723.6 967.619Z" fill="#E0E0E0"/>
<path d="M748.914 537.863C768.658 456.128 718.404 373.863 636.668 354.119C554.933 334.375 472.667 384.63 452.924 466.365C433.18 548.101 483.434 630.366 565.17 650.109C646.905 669.853 729.171 619.599 748.914 537.863Z" fill="#F5F5F5"/>
<path d="M607.713 569.144C607.707 571.633 606.962 574.065 605.573 576.131C604.185 578.197 602.214 579.805 599.911 580.751C597.608 581.696 595.077 581.938 592.637 581.444C590.197 580.95 587.958 579.743 586.204 577.976C584.45 576.21 583.26 573.962 582.784 571.519C582.308 569.075 582.568 566.545 583.53 564.249C584.492 561.953 586.115 559.995 588.191 558.621C590.267 557.247 592.704 556.521 595.193 556.533C598.522 556.557 601.706 557.896 604.052 560.259C606.397 562.621 607.713 565.815 607.713 569.144Z" fill="#454C64"/>
<path d="M570.002 552.982C573.212 549.527 577.09 546.759 581.4 544.845C585.711 542.932 590.365 541.913 595.08 541.85C599.796 541.787 604.476 542.681 608.836 544.479C613.196 546.277 617.146 548.94 620.447 552.309C626.875 558.798 636.915 548.85 630.487 542.361C625.866 537.704 620.36 534.018 614.294 531.521C608.228 529.024 601.723 527.765 595.163 527.82C588.603 527.874 582.12 529.24 576.096 531.837C570.072 534.434 564.628 538.21 560.085 542.942C553.81 549.523 563.758 559.594 570.063 552.982H570.002Z" fill="#454C64"/>
<path d="M527.271 494.518C546.402 477.989 569.237 467.581 594.796 467.52C620.31 467.156 645.001 476.551 663.82 493.783C670.432 499.905 680.502 490.079 673.86 483.835C652.407 463.966 624.188 453.02 594.949 453.226C565.533 453.226 539.392 465.469 517.384 484.356C510.497 490.324 520.445 500.334 527.363 494.395L527.271 494.518Z" fill="#454C64"/>
<path d="M544.137 526.872C550.515 519.754 558.3 514.034 566.999 510.075C575.698 506.115 585.123 504.001 594.68 503.866C604.237 503.731 613.718 505.577 622.525 509.289C631.333 513.001 639.276 518.498 645.853 525.434C652.219 531.953 662.259 522.005 655.893 515.455C648.002 507.208 638.501 500.67 627.98 496.245C617.458 491.82 606.14 489.604 594.727 489.733C583.313 489.862 572.048 492.334 561.63 496.996C551.211 501.657 541.861 508.409 534.159 516.832C528.037 523.505 537.923 533.576 544.137 526.872Z" fill="#454C64"/>
<path d="M713.997 467.85C717.71 446.858 703.703 426.831 682.711 423.118C661.719 419.406 641.693 433.413 637.98 454.405C634.267 475.396 648.274 495.423 669.266 499.136C690.258 502.849 710.284 488.841 713.997 467.85Z" fill="#6600CC"/>
<path d="M691.898 450.334L686.422 444.858L661.899 469.381L667.375 474.857L691.898 450.334Z" fill="white"/>
<path d="M667.388 444.83L661.912 450.306L686.435 474.829L691.91 469.353L667.388 444.83Z" fill="white"/>
<path d="M590.695 236.02C592.61 234.869 594.668 233.974 596.816 233.357L598.071 227.236L608.265 227.052L609.734 233.174C611.873 233.716 613.932 234.54 615.856 235.623L620.967 232.194L628.314 239.296L625.1 244.561C626.251 246.476 627.146 248.534 627.763 250.682L633.885 251.937L634.068 262.161L627.946 263.6C627.415 265.738 626.601 267.797 625.528 269.722L628.895 274.864L621.825 282.21L616.56 279.149C614.642 280.289 612.584 281.174 610.438 281.782L609.183 287.904L598.99 288.087L597.521 281.965C595.383 281.417 593.325 280.594 591.399 279.517L586.226 282.884L578.879 275.813L582.093 270.548C580.939 268.634 580.043 266.576 579.43 264.426L573.308 263.171L573.125 252.978L579.247 251.509C579.784 249.372 580.597 247.314 581.665 245.387L578.298 240.214L585.399 232.898L590.664 235.959L590.695 236.02ZM596.113 249.642C594.607 251.201 593.597 253.172 593.211 255.305C592.826 257.438 593.081 259.638 593.946 261.625C594.81 263.613 596.245 265.3 598.069 266.472C599.892 267.644 602.022 268.25 604.189 268.211C606.357 268.172 608.464 267.492 610.245 266.256C612.025 265.019 613.399 263.283 614.192 261.265C614.986 259.248 615.163 257.041 614.702 254.923C614.24 252.805 613.161 250.871 611.601 249.366C609.51 247.35 606.704 246.246 603.8 246.298C600.895 246.35 598.131 247.552 596.113 249.642Z" fill="#E0E0E0"/>
<path d="M461.246 258.825C458.185 258.825 453.931 258.825 449.86 258.825C444.993 258.825 440.126 258.825 436.728 258.825C436.322 258.825 435.933 258.663 435.646 258.376C435.359 258.089 435.198 257.7 435.198 257.294C435.194 257.095 435.229 256.896 435.303 256.711C435.376 256.525 435.486 256.356 435.626 256.214C435.766 256.071 435.932 255.958 436.116 255.881C436.3 255.803 436.498 255.764 436.697 255.764C440.095 255.764 445.023 255.764 449.921 255.764C454.818 255.764 459.655 255.947 463.052 255.764C463.252 255.76 463.45 255.795 463.636 255.869C463.821 255.942 463.99 256.052 464.133 256.192C464.275 256.332 464.388 256.498 464.466 256.682C464.543 256.866 464.583 257.064 464.583 257.263C464.587 257.464 464.551 257.664 464.478 257.852C464.405 258.039 464.296 258.21 464.156 258.355C464.017 258.5 463.85 258.616 463.666 258.696C463.482 258.777 463.284 258.821 463.083 258.825H461.246Z" fill="#263238"/>
<path d="M446.034 269.109C445.819 269.105 445.608 269.057 445.413 268.967C445.219 268.878 445.044 268.749 444.901 268.589L435.718 258.09C435.469 257.801 435.331 257.431 435.331 257.049C435.331 256.667 435.469 256.298 435.718 256.009L444.901 246.458C445.035 246.296 445.201 246.163 445.389 246.068C445.577 245.972 445.782 245.917 445.992 245.905C446.203 245.892 446.413 245.923 446.611 245.996C446.808 246.069 446.989 246.182 447.141 246.327C447.293 246.473 447.413 246.649 447.494 246.843C447.575 247.037 447.615 247.246 447.612 247.457C447.609 247.667 447.562 247.875 447.475 248.066C447.388 248.258 447.262 248.43 447.105 248.57L438.994 257.11L447.381 266.569C447.576 266.791 447.702 267.064 447.745 267.357C447.788 267.649 447.745 267.947 447.623 268.216C447.5 268.485 447.301 268.712 447.052 268.87C446.803 269.029 446.513 269.112 446.218 269.109H446.034Z" fill="#263238"/>
<path d="M761.556 249.917C764.177 249.917 766.301 247.793 766.301 245.173C766.301 242.552 764.177 240.428 761.556 240.428C758.936 240.428 756.812 242.552 756.812 245.173C756.812 247.793 758.936 249.917 761.556 249.917Z" fill="#263238"/>
<path d="M766.301 260.171C766.307 261.118 766.031 262.046 765.509 262.836C764.986 263.626 764.241 264.242 763.367 264.608C762.493 264.973 761.531 265.07 760.601 264.887C759.672 264.703 758.819 264.248 758.149 263.578C757.479 262.909 757.024 262.055 756.841 261.126C756.658 260.197 756.755 259.234 757.12 258.361C757.485 257.487 758.102 256.741 758.892 256.219C759.682 255.697 760.609 255.421 761.556 255.427C762.814 255.427 764.021 255.927 764.911 256.817C765.801 257.706 766.301 258.913 766.301 260.171Z" fill="#263238"/>
<path d="M761.556 279.915C764.177 279.915 766.301 277.79 766.301 275.17C766.301 272.55 764.177 270.426 761.556 270.426C758.936 270.426 756.812 272.55 756.812 275.17C756.812 277.79 758.936 279.915 761.556 279.915Z" fill="#263238"/>
<path d="M497.795 711.509C490.579 712.296 483.316 712.562 476.062 712.305C468.818 712.562 461.565 712.296 454.36 711.509C461.565 710.722 468.818 710.456 476.062 710.713C483.316 710.456 490.579 710.722 497.795 711.509Z" fill="#263238"/>
<path d="M575.757 762.321C575.757 762.749 549.065 763.116 516.16 763.116C483.255 763.116 456.563 762.749 456.563 762.321C456.563 761.892 483.224 761.525 516.16 761.525C549.096 761.525 575.757 761.892 575.757 762.321Z" fill="#263238"/>
<path d="M575.757 812.857C575.757 813.285 549.065 813.653 516.16 813.653C483.255 813.653 456.563 813.285 456.563 812.857C456.563 812.428 483.224 812.061 516.16 812.061C549.096 812.061 575.757 812.367 575.757 812.857Z" fill="#263238"/>
<path d="M733.304 743.251H689.716C679.184 743.251 670.646 751.782 670.646 762.305C670.646 772.829 679.184 781.36 689.716 781.36H733.304C743.836 781.36 752.373 772.829 752.373 762.305C752.373 751.782 743.836 743.251 733.304 743.251Z" fill="#EBEBEB"/>
<path d="M705.45 762.321C705.45 765.481 704.513 768.57 702.757 771.198C701.001 773.825 698.506 775.873 695.586 777.083C692.667 778.292 689.454 778.608 686.355 777.992C683.255 777.375 680.408 775.853 678.174 773.619C675.939 771.384 674.417 768.537 673.801 765.438C673.184 762.338 673.501 759.126 674.71 756.206C675.919 753.286 677.967 750.791 680.595 749.035C683.222 747.28 686.312 746.342 689.472 746.342C691.57 746.342 693.648 746.756 695.586 747.559C697.525 748.362 699.286 749.539 700.77 751.022C702.254 752.506 703.431 754.267 704.234 756.206C705.037 758.145 705.45 760.222 705.45 762.321Z" fill="#E0E0E0"/>
<path d="M733.334 831.865H689.716C684.658 831.865 679.808 829.856 676.231 826.28C672.655 822.704 670.646 817.853 670.646 812.796C670.646 807.738 672.655 802.888 676.231 799.311C679.808 795.735 684.658 793.726 689.716 793.726H733.334C738.392 793.726 743.242 795.735 746.819 799.311C750.395 802.888 752.404 807.738 752.404 812.796C752.404 817.853 750.395 822.704 746.819 826.28C743.242 829.856 738.392 831.865 733.334 831.865Z" fill="#EBEBEB"/>
<path d="M689.472 828.774C698.296 828.774 705.45 821.62 705.45 812.796C705.45 803.971 698.296 796.818 689.472 796.818C680.647 796.818 673.494 803.971 673.494 812.796C673.494 821.62 680.647 828.774 689.472 828.774Z" fill="#E0E0E0"/>
<path d="M575.757 863.607C575.757 864.067 549.065 864.403 516.16 864.403C483.255 864.403 456.563 864.067 456.563 863.607C456.563 863.148 483.224 862.812 516.16 862.812C549.096 862.812 575.757 863.179 575.757 863.607Z" fill="#263238"/>
<path d="M733.334 888.309H689.716C687.213 888.313 684.734 887.824 682.42 886.869C680.107 885.914 678.004 884.512 676.233 882.744C674.462 880.976 673.057 878.875 672.098 876.563C671.139 874.251 670.646 871.773 670.646 869.27C670.646 864.213 672.655 859.362 676.231 855.786C679.808 852.21 684.658 850.201 689.716 850.201H733.334C738.392 850.201 743.242 852.21 746.819 855.786C750.395 859.362 752.404 864.213 752.404 869.27C752.404 871.773 751.911 874.251 750.952 876.563C749.993 878.875 748.588 880.976 746.817 882.744C745.046 884.512 742.943 885.914 740.63 886.869C738.316 887.824 735.837 888.313 733.334 888.309Z" fill="#EBEBEB"/>
<path d="M689.472 885.248C698.296 885.248 705.45 878.095 705.45 869.27C705.45 860.446 698.296 853.292 689.472 853.292C680.647 853.292 673.494 860.446 673.494 869.27C673.494 878.095 680.647 885.248 689.472 885.248Z" fill="#E0E0E0"/>
</svg>
