<svg xmlns="http://www.w3.org/2000/svg" width="20" height="16.995" viewBox="0 0 20 16.995">
  <path id="user-times" d="M13.3,12.217A4.919,4.919,0,0,0,15,8.5a5,5,0,1,0-10,0,4.919,4.919,0,0,0,1.7,3.719A8,8,0,0,0,2,19.5a1,1,0,1,0,2,0,6,6,0,1,1,12,0,1,1,0,0,0,2,0,8,8,0,0,0-4.7-7.278ZM10,11.5a3,3,0,1,1,3-3A3,3,0,0,1,10,11.5ZM20.9,12l.8-.79a1,1,0,0,0-1.42-1.42l-.79.8-.79-.8a1,1,0,0,0-1.42,1.42l.8.79-.8.79a1,1,0,1,0,1.42,1.42l.79-.8.79.8a1,1,0,1,0,1.42-1.42Z" transform="translate(-2 -3.5)" fill="#ff0001"/>
</svg>
